<svg width="32" height="32" viewBox="0 0 32 32" fill="none" xmlns="http://www.w3.org/2000/svg">
<g clip-path="url(#clip0_264_3957)">
<g clip-path="url(#clip1_264_3957)">
<g clip-path="url(#clip2_264_3957)">
<path d="M27.8321 3.37025L7.27735 0.481464C5.38534 0.215559 3.636 1.53378 3.3701 3.42579L0.481316 23.9805C0.215411 25.8726 1.53363 27.6219 3.42564 27.8878L23.9804 30.7766C25.8724 31.0425 27.6217 29.7243 27.8877 27.8323L30.7764 7.2775C31.0423 5.38549 29.7241 3.63615 27.8321 3.37025Z" fill="#62C6C2"/>
<path d="M18.3463 10.5661L19.8057 10.7713L20.163 8.22928C19.9161 8.15926 19.0612 7.95962 18.0527 7.8179C15.9486 7.52218 14.3212 8.6432 13.9793 11.0759L13.6647 13.3147L11.3428 12.9884L10.9434 15.8301L13.2653 16.1564L12.2604 23.3066L15.1072 23.7067L16.112 16.5572L18.3399 16.8704L19.0931 14.0783L16.5107 13.7154L16.7858 11.7576C16.9019 10.9364 17.202 10.4053 18.3463 10.5661Z" fill="white"/>
</g>
</g>
</g>
<defs>
<clipPath id="clip0_264_3957">
<rect width="32" height="32" fill="white"/>
</clipPath>
<clipPath id="clip1_264_3957">
<rect width="32" height="32" fill="white"/>
</clipPath>
<clipPath id="clip2_264_3957">
<rect width="32" height="32" fill="white"/>
</clipPath>
</defs>
</svg>
