<svg width="172" height="45" viewBox="0 0 172 48" fill="none" xmlns="http://www.w3.org/2000/svg">
<g clip-path="url(#clip0_283_549)">
<path d="M43.5826 14.1142L44.3743 15.1922L46.5927 18.1976L44.3743 18.5813L42.1573 18.9739L43.5826 14.1148V14.1142ZM169.614 28.365L155.865 30.9512L146.942 32.6175C146.761 32.6524 146.58 32.6683 146.402 32.6683C145.046 32.6683 143.833 31.704 143.58 30.3312L142.199 23.0587L144.921 7.69164C145.176 6.24006 144.51 4.83804 143.344 4.07953L155.866 1.72715L164.283 0.154872C164.461 0.121839 164.637 0.105957 164.812 0.105957C166.163 0.105957 167.389 1.06266 167.645 2.44119L171.914 25.0134C172.214 26.5679 171.181 28.0741 169.614 28.3657V28.365ZM159.032 16.4195C158.01 15.5937 156.79 15.4959 155.582 15.2703C155.043 15.1744 154.497 15.0505 153.983 14.818C153.789 14.7266 153.633 14.6084 153.512 14.4464C153.403 14.2939 153.327 14.1053 153.29 13.8874C153.01 12.3259 154.265 11.5922 155.582 11.7103C155.827 11.7307 156.065 11.7834 156.297 11.8596C156.554 11.9485 156.805 12.0464 157.025 12.1664C157.206 12.2579 157.373 12.3659 157.538 12.4777L158.73 10.4652C157.856 9.70162 156.726 9.34079 155.581 9.33761C152.988 9.3122 150.358 11.1113 150.683 14.0652C150.83 15.372 151.565 16.5955 152.81 17.1291C153.067 17.2378 153.318 17.3286 153.581 17.4023C154.221 17.5859 154.916 17.6564 155.582 17.7765C156.172 17.8838 156.746 18.0306 157.26 18.3234C158.163 18.8437 158.216 19.9097 157.736 20.665C157.244 21.4273 156.422 21.6414 155.582 21.5461C154.836 21.4546 154.08 21.1154 153.544 20.6917C153.493 20.6574 153.432 20.6116 153.368 20.5576L152.007 22.5702C152.678 23.1298 153.393 23.5192 154.143 23.739C154.623 23.8763 155.105 23.948 155.582 23.9557C156.805 23.9627 157.975 23.5732 158.881 22.8846C160.976 21.2787 161.095 18.0833 159.032 16.4195ZM31.5866 7.49281L28.9471 22.4018L27.582 30.1158C27.3701 31.2784 26.3358 32.1074 25.1799 32.1074C25.0417 32.1074 24.9015 32.0953 24.7607 32.0705L16.2567 30.5859L2.03403 28.0849C0.725818 27.8594 -0.161258 26.5863 0.0704311 25.2859L4.06804 2.66289C4.27924 1.49274 5.31609 0.663719 6.47261 0.663719C6.6115 0.663719 6.75231 0.675789 6.89311 0.700564L16.2573 2.33891L28.7398 4.53565L29.6153 4.69002C30.9248 4.91681 31.8157 6.18861 31.5872 7.49344L31.5866 7.49281ZM24.0599 10.1743L21.4755 9.70289L19.7666 18.9345C18.5998 17.2492 17.4311 15.5302 16.2567 13.8238C15.0202 12.0184 13.7715 10.2181 12.5074 8.44951C12.3218 8.18461 12.1567 7.98895 11.8328 7.93622C11.404 7.85046 11.1128 8.04676 11.0418 8.41584L8.4535 22.3567L11.0334 22.8293L12.7366 13.6593L16.2561 18.683L20.0757 24.1361C20.3209 24.4632 20.5551 24.7961 21.0275 24.6526C21.2636 24.5814 21.4198 24.3959 21.4614 24.1837L24.0593 10.1743H24.0599ZM127.83 11.4696C125.111 11.4696 122.912 13.6657 122.912 16.3649C122.912 19.0641 125.111 21.2704 127.83 21.2704C130.549 21.2704 132.747 19.0743 132.747 16.3649C132.747 13.6555 130.546 11.4696 127.83 11.4696ZM115.363 25.2859C115.579 26.5456 114.754 27.7768 113.513 28.0576C113.472 28.0671 113.433 28.0779 113.392 28.0849L99.7609 30.4735L90.6668 32.0705C90.5266 32.0953 90.3871 32.1074 90.2488 32.1074C89.0942 32.1074 88.0536 31.2784 87.8449 30.1158L86.4804 22.4456L89.0904 7.69228C89.2574 6.75653 89.043 5.80745 88.4869 5.02036C88.3025 4.75926 88.0862 4.53057 87.8481 4.33173L99.7609 2.23917L108.493 0.706917L108.535 0.699293C108.675 0.674518 108.815 0.662448 108.953 0.662448C110.103 0.662448 111.139 1.4902 111.351 2.6432V2.66162L113.216 13.1752L115.364 25.2853L115.363 25.2859ZM108.714 22.088L106.424 8.03151C106.371 7.72976 106.155 7.51313 105.788 7.57031C105.409 7.62494 105.262 7.91398 105.073 8.25512L99.7609 16.0975V16.1032L92.2412 10.3172C91.886 10.0586 91.6601 9.84836 91.2902 9.90617C90.9842 9.95763 90.7756 10.2441 90.8217 10.5484L93.1098 24.6068L95.7096 24.1901L94.2919 15.5372L98.8386 18.9568C99.0825 19.1709 99.4063 19.3189 99.7603 19.3672C99.9363 19.3875 100.112 19.3799 100.293 19.3551C100.845 19.2642 101.303 18.9409 101.545 18.5223L104.715 13.8562L106.12 22.5143L108.714 22.0886V22.088ZM87.9448 7.49281L85.2989 22.4463L83.942 30.1165C83.7302 31.279 82.685 32.108 81.5387 32.108C81.4011 32.108 81.2622 32.0959 81.1234 32.0712L71.9371 30.4671L59.0488 28.1999L58.3992 28.0855C57.0853 27.86 56.1982 26.5869 56.426 25.2865L58.805 11.8431L60.4294 2.66289V2.64447C60.6566 1.49083 61.6928 0.663083 62.8378 0.663719C62.9754 0.663719 63.1143 0.675789 63.2538 0.700564L63.289 0.708187H63.2922L71.9371 2.21948L84.054 4.3527L85.969 4.69002C87.283 4.91681 88.1771 6.18861 87.9441 7.49344L87.9448 7.49281ZM80.5364 10.3038C80.1697 10.2365 79.9444 10.4385 79.5803 10.6914L71.9409 16.3217L71.9364 16.3109L66.7944 8.36693C66.6069 8.01245 66.4719 7.73675 66.1 7.66877C65.7282 7.60652 65.4997 7.8098 65.4446 8.11409L62.873 22.1267L65.4555 22.6019L67.0338 13.975L70.1629 18.7154C70.4061 19.1404 70.7933 19.4605 71.3482 19.5577C71.5409 19.6009 71.747 19.6009 71.9364 19.5755C72.2692 19.5285 72.5713 19.3919 72.8049 19.1931L77.36 15.8484L75.7791 24.4791L78.4192 24.9556L80.9826 10.9461C81.0504 10.6412 80.8507 10.354 80.5358 10.3038H80.5364ZM57.0129 28.7881L44.2732 30.8508L34.6805 32.4034C34.5262 32.4275 34.3726 32.4396 34.2216 32.4396C32.8295 32.4396 31.5994 31.4346 31.3696 30.0275L30.1254 22.4094L32.7303 7.69228C33.0036 6.13143 32.2145 4.63031 30.8864 3.92262L44.2726 1.76082L52.8265 0.370862C52.9808 0.346722 53.1337 0.334652 53.2854 0.334652C54.6775 0.334652 55.9076 1.34472 56.1386 2.75183L57.6261 11.8348L55.281 25.0864C55.1172 26.0203 55.3303 26.9649 55.8807 27.7488C56.1847 28.1814 56.5719 28.5308 57.0136 28.7875L57.0129 28.7881ZM53.0601 22.4901L44.3737 10.7949L43.5596 9.70035C43.308 9.36747 43.0943 9.20548 42.7256 9.27218C42.3621 9.34333 42.1566 9.62539 42.085 9.95191L37.4979 25.2211L40.3812 24.7167L41.2593 21.7818L44.3737 21.2431L48.3355 20.5481L50.1653 23.0034L53.0601 22.4901ZM143.774 7.49344L141.016 23.0676L139.767 30.1171L139.761 30.1323C139.548 31.2853 138.504 32.1086 137.356 32.1086C137.218 32.1086 137.078 32.0966 136.938 32.0718H136.903L127.83 30.4747L115.431 28.3021C116.274 27.5068 116.718 26.3182 116.508 25.0934L114.394 13.1765L116.258 2.66353C116.466 1.49337 117.504 0.664354 118.657 0.664354C118.796 0.664354 118.936 0.676424 119.076 0.701199L127.829 2.24044L141.391 4.61887L141.797 4.69002C143.105 4.91681 144.003 6.18861 143.774 7.49344H143.774ZM135.249 16.3662C135.249 12.284 131.931 8.98059 127.83 8.98059C123.729 8.98059 120.404 12.284 120.404 16.3662C120.404 20.4484 123.734 23.7568 127.83 23.7568C131.925 23.7568 135.249 20.4484 135.249 16.3662Z" fill="#231F20"/>
<path d="M25.0992 41.1985H26.131V43.6208H28.9317V41.1985H29.9634V47.0252H28.9317V44.5699H26.131V47.0252H25.0992V41.1985ZM33.3255 44.1284V44.1118C33.3255 42.4722 34.6004 41.0988 36.4034 41.0988C38.2063 41.0988 39.464 42.4557 39.464 44.0953V44.1118C39.464 45.7515 38.1891 47.1249 36.3861 47.1249C34.5832 47.1249 33.3255 45.768 33.3255 44.1284ZM38.3823 44.1284V44.1118C38.3823 42.9798 37.5522 42.0472 36.3867 42.0472C35.2213 42.0472 34.4078 42.9626 34.4078 44.0947V44.1112C34.4078 45.2432 35.2379 46.1752 36.4034 46.1752C37.5689 46.1752 38.3823 45.2598 38.3823 44.1277V44.1284ZM44.0927 42.1476H42.2225V41.1985H46.9939V42.1476H45.1237V47.0252H44.092V42.1476H44.0927ZM50.8513 41.1985H55.2035V42.1139H51.8824V43.629H54.8259V44.5527H51.8824V46.1091H55.2451V47.0245H50.8507V41.1979L50.8513 41.1985ZM59.2536 41.1985H60.2853V46.0926H63.3715V47.0245H59.2542V41.1979L59.2536 41.1985ZM66.4904 46.1758L67.1112 45.4433C67.6731 45.9261 68.2434 46.2006 68.9647 46.2006C69.6022 46.2006 70.0048 45.9007 70.0048 45.4681V45.4516C70.0048 45.0355 69.7699 44.8106 68.6799 44.561C67.4306 44.2611 66.7259 43.8952 66.7259 42.8216V42.8051C66.7259 41.8065 67.5643 41.1153 68.7305 41.1153C69.5855 41.1153 70.2653 41.3732 70.8605 41.8478L70.3069 42.6221C69.7788 42.2308 69.2502 42.0231 68.7132 42.0231C68.1096 42.0231 67.757 42.3312 67.757 42.7143V42.7308C67.757 43.1805 68.0252 43.38 69.1574 43.6462C70.3984 43.946 71.0358 44.3869 71.0358 45.3525V45.369C71.0358 46.4591 70.1718 47.1084 68.9391 47.1084C68.0418 47.1084 67.195 46.8003 66.4904 46.1758ZM82.9519 46.3505C82.4488 46.8168 81.8619 47.1077 81.1572 47.1077C80.0589 47.1077 79.2282 46.4502 79.2282 45.4427V45.4262C79.2282 44.6772 79.6813 44.136 80.4858 43.8031C80.1505 43.3705 79.9994 43.0122 79.9994 42.5878V42.5713C79.9994 41.7804 80.6369 41.0981 81.6852 41.0981C82.6158 41.0981 83.245 41.7226 83.245 42.5046V42.5211C83.245 43.2866 82.7336 43.7447 81.9534 44.0362L82.9595 45.052C83.1778 44.7191 83.3954 44.3361 83.5887 43.9282L84.3689 44.3361C84.134 44.8024 83.8741 45.2598 83.572 45.6593L84.5026 46.5913L83.7314 47.1408L82.9512 46.3499L82.9519 46.3505ZM82.365 45.7515L81.0567 44.4282C80.5114 44.6613 80.2765 45.019 80.2765 45.3938V45.4103C80.2765 45.9014 80.6874 46.259 81.2577 46.259C81.6603 46.259 82.0289 46.0678 82.365 45.7515ZM82.3317 42.5802V42.5637C82.3317 42.1724 82.0552 41.9062 81.6692 41.9062C81.25 41.9062 80.9646 42.206 80.9646 42.6056V42.6221C80.9646 42.9137 81.0817 43.1297 81.4087 43.488C82.0123 43.2714 82.331 42.9969 82.331 42.5808L82.3317 42.5802ZM92.9139 41.1985H95.5303C96.2682 41.1985 96.8468 41.4151 97.2244 41.7811C97.5349 42.0974 97.7109 42.53 97.7109 43.0382V43.0548C97.7109 44.0121 97.1323 44.5864 96.3188 44.8195L97.9035 47.0252H96.6791L95.2365 44.9942H93.9449V47.0252H92.9132V41.1985H92.9139ZM95.4548 44.0871C96.1927 44.0871 96.6625 43.704 96.6625 43.1132V43.0967C96.6625 42.4722 96.2094 42.1311 95.4464 42.1311H93.9456V44.0871H95.4548ZM101.76 41.1985H106.112V42.1139H102.791V43.629H105.735V44.5527H102.791V46.1091H106.154V47.0245H101.76V41.1979L101.76 41.1985ZM109.768 46.1758L110.389 45.4433C110.951 45.9261 111.521 46.2006 112.243 46.2006C112.88 46.2006 113.283 45.9007 113.283 45.4681V45.4516C113.283 45.0355 113.048 44.8106 111.958 44.561C110.709 44.2611 110.004 43.8952 110.004 42.8216V42.8051C110.004 41.8065 110.842 41.1153 112.008 41.1153C112.863 41.1153 113.543 41.3732 114.138 41.8478L113.585 42.6221C113.057 42.2308 112.528 42.0231 111.991 42.0231C111.388 42.0231 111.035 42.3312 111.035 42.7143V42.7308C111.035 43.1805 111.303 43.38 112.435 43.6462C113.676 43.946 114.314 44.3869 114.314 45.3525V45.369C114.314 46.4591 113.45 47.1084 112.217 47.1084C111.32 47.1084 110.473 46.8003 109.768 46.1758ZM117.383 44.1284V44.1118C117.383 42.4722 118.658 41.0988 120.461 41.0988C122.264 41.0988 123.522 42.4557 123.522 44.0953V44.1118C123.522 45.7515 122.247 47.1249 120.444 47.1249C118.641 47.1249 117.383 45.768 117.383 44.1284ZM122.44 44.1284V44.1118C122.44 42.9798 121.609 42.0472 120.444 42.0472C119.278 42.0472 118.465 42.9626 118.465 44.0947V44.1112C118.465 45.2432 119.295 46.1752 120.461 46.1752C121.626 46.1752 122.44 45.2598 122.44 44.1277V44.1284ZM126.716 41.1985H129.333C130.071 41.1985 130.649 41.4151 131.027 41.7811C131.337 42.0974 131.513 42.53 131.513 43.0382V43.0548C131.513 44.0121 130.935 44.5864 130.121 44.8195L131.706 47.0252H130.481L129.039 44.9942H127.747V47.0252H126.716V41.1985H126.716ZM129.257 44.0871C129.995 44.0871 130.465 43.704 130.465 43.1132V43.0967C130.465 42.4722 130.012 42.1311 129.249 42.1311H127.748V44.0871H129.257ZM136.662 42.1476H134.791V41.1985H139.563V42.1476H137.693V47.0252H136.661V42.1476H136.662ZM142.355 46.1764L142.976 45.444C143.538 45.9268 144.108 46.2012 144.83 46.2012C145.467 46.2012 145.87 45.9014 145.87 45.4688V45.4522C145.87 45.0361 145.635 44.8113 144.545 44.5616C143.295 44.2618 142.591 43.8958 142.591 42.8222V42.8057C142.591 41.8071 143.429 41.1159 144.595 41.1159C145.45 41.1159 146.13 41.3738 146.725 41.8484L146.172 42.6228C145.644 42.2315 145.115 42.0237 144.578 42.0237C143.975 42.0237 143.622 42.3318 143.622 42.7149V42.7314C143.622 43.1812 143.89 43.3806 145.022 43.6468C146.263 43.9467 146.901 44.3875 146.901 45.3531V45.3697C146.901 46.4598 146.037 47.109 144.804 47.109C143.907 47.109 143.06 46.8009 142.355 46.1764Z" fill="#231F20"/>
</g>
<defs>
<clipPath id="clip0_283_549">
<rect width="172" height="47" fill="white" transform="translate(0 0.14209)"/>
</clipPath>
</defs>
</svg>
